# Exported from Wings 3D 1.4.1
mtllib beacon_cube.mtl
o cube2
#8 vertices, 4 faces
v -0.50000000 -0.50000000 0.50000000
v -0.50000000 0.50000000 0.50000000
v 0.50000000 0.50000000 0.50000000
v 0.50000000 -0.50000000 0.50000000
v -0.50000000 -0.50000000 -0.50000000
v -0.50000000 0.50000000 -0.50000000
v 0.50000000 0.50000000 -0.50000000
v 0.50000000 -0.50000000 -0.50000000
vt 0.0000000e+0 4.4408921e-16
vt 0.0000000e+0 1.00000000
vt 0.25000000 3.3306691e-16
vt 0.25000000 1.00000000
vt 0.50000000 2.2204460e-16
vt 0.50000000 1.00000000
vt 0.75000000 1.1102230e-16
vt 0.75000000 1.00000000
vt 1.00000000 0.0000000e+0
vt 1.00000000 1.00000000
vn -0.70710678 0.0000000e+0 0.70710678
vn -0.70710678 0.0000000e+0 0.70710678
vn 0.70710678 0.0000000e+0 0.70710678
vn 0.70710678 0.0000000e+0 0.70710678
vn -0.70710678 0.0000000e+0 -0.70710678
vn -0.70710678 0.0000000e+0 -0.70710678
vn 0.70710678 0.0000000e+0 -0.70710678
vn 0.70710678 0.0000000e+0 -0.70710678
g cube2_cube2_auv
usemtl cube2_auv
s 1
f 1/4/1 4/2/4 3/1/3 2/3/2
f 2/3/2 6/5/6 5/6/5 1/4/1
f 4/10/4 8/8/8 7/7/7 3/9/3
f 6/5/6 7/7/7 8/8/8 5/6/5
