# Exported from Wings 3D 1.4.1
mtllib Cilindro.mtl
o Tube1
#32 vertices, 16 faces
v 1.00000000 1.00000000 0.0000000e+0
v 0.92387953 1.00000000 0.38268343
v 0.70710678 1.00000000 0.70710678
v 0.38268343 1.00000000 0.92387953
v 6.1232340e-17 1.00000000 1.00000000
v -0.38268343 1.00000000 0.92387953
v -0.70710678 1.00000000 0.70710678
v -0.92387953 1.00000000 0.38268343
v -1.00000000 1.00000000 1.2246468e-16
v -0.92387953 1.00000000 -0.38268343
v -0.70710678 1.00000000 -0.70710678
v -0.38268343 1.00000000 -0.92387953
v -1.8369702e-16 1.00000000 -1.00000000
v 0.38268343 1.00000000 -0.92387953
v 0.70710678 1.00000000 -0.70710678
v 0.92387953 1.00000000 -0.38268343
v 1.00000000 -1.00000000 0.0000000e+0
v 0.92387953 -1.00000000 0.38268343
v 0.70710678 -1.00000000 0.70710678
v 0.38268343 -1.00000000 0.92387953
v 6.1232340e-17 -1.00000000 1.00000000
v -0.38268343 -1.00000000 0.92387953
v -0.70710678 -1.00000000 0.70710678
v -0.92387953 -1.00000000 0.38268343
v -1.00000000 -1.00000000 1.2246468e-16
v -0.92387953 -1.00000000 -0.38268343
v -0.70710678 -1.00000000 -0.70710678
v -0.38268343 -1.00000000 -0.92387953
v -1.8369702e-16 -1.00000000 -1.00000000
v 0.38268343 -1.00000000 -0.92387953
v 0.70710678 -1.00000000 -0.70710678
v 0.92387953 -1.00000000 -0.38268343
vt 0.0000000e+0 2.2204460e-16
vt 8.3266727e-16 1.00000000
vt 6.2509743e-2 9.8775635e-5
vt 6.2509743e-2 0.99990122
vt 0.12499491 1.8918900e-4
vt 0.12499491 0.99981081
vt 0.18748627 1.8861930e-4
vt 0.18748627 0.99981138
vt 0.24997584 1.8602091e-4
vt 0.24997584 0.99981398
vt 0.31250265 1.0386316e-4
vt 0.31250265 0.99989614
vt 0.37504704 6.2805711e-5
vt 0.37504704 0.99993719
vt 0.43752563 1.0915194e-4
vt 0.43752563 0.99989085
vt 0.50000000 1.2465488e-4
vt 0.50000000 0.99987535
vt 0.56247437 1.0915194e-4
vt 0.56247437 0.99989085
vt 0.62495296 6.2805711e-5
vt 0.62495296 0.99993719
vt 0.68749735 1.0386316e-4
vt 0.68749735 0.99989614
vt 0.75002416 1.8602091e-4
vt 0.75002416 0.99981398
vt 0.81251373 0.99981138
vt 0.81251373 1.8861930e-4
vt 0.87500509 0.99981081
vt 0.87500509 1.8918900e-4
vt 0.93749026 9.8775635e-5
vt 0.93749026 0.99990122
vt 1.00000000 0.0000000e+0
vt 1.00000000 1.00000000
vn 1.00000000 0.0000000e+0 -1.4149670e-16
vn 0.92387953 0.0000000e+0 0.38268343
vn 0.70710678 0.0000000e+0 0.70710678
vn 0.38268343 0.0000000e+0 0.92387953
vn 0.0000000e+0 0.0000000e+0 1.00000000
vn -0.38268343 0.0000000e+0 0.92387953
vn -0.70710678 0.0000000e+0 0.70710678
vn -0.92387953 0.0000000e+0 0.38268343
vn -1.00000000 0.0000000e+0 1.2734703e-16
vn -0.92387953 0.0000000e+0 -0.38268343
vn -0.70710678 0.0000000e+0 -0.70710678
vn -0.38268343 0.0000000e+0 -0.92387953
vn -1.5564637e-16 0.0000000e+0 -1.00000000
vn 0.38268343 0.0000000e+0 -0.92387953
vn 0.70710678 0.0000000e+0 -0.70710678
vn 0.92387953 0.0000000e+0 -0.38268343
vn 1.00000000 0.0000000e+0 -1.4149670e-16
vn 0.92387953 0.0000000e+0 0.38268343
vn 0.70710678 0.0000000e+0 0.70710678
vn 0.38268343 0.0000000e+0 0.92387953
vn 0.0000000e+0 0.0000000e+0 1.00000000
vn -0.38268343 0.0000000e+0 0.92387953
vn -0.70710678 0.0000000e+0 0.70710678
vn -0.92387953 0.0000000e+0 0.38268343
vn -1.00000000 0.0000000e+0 1.2734703e-16
vn -0.92387953 0.0000000e+0 -0.38268343
vn -0.70710678 0.0000000e+0 -0.70710678
vn -0.38268343 0.0000000e+0 -0.92387953
vn -1.5564637e-16 0.0000000e+0 -1.00000000
vn 0.38268343 0.0000000e+0 -0.92387953
vn 0.70710678 0.0000000e+0 -0.70710678
vn 0.92387953 0.0000000e+0 -0.38268343
g Tube1_Tube1_auv
usemtl Tube1_auv
s 1
f 1/6/1 17/5/17 32/7/32 16/8/16
f 2/4/2 18/3/18 17/5/17 1/6/1
f 3/2/3 19/1/19 18/3/18 2/4/2
f 4/32/4 20/31/20 19/33/19 3/34/3
f 5/29/5 21/30/21 20/31/20 4/32/4
f 6/27/6 22/28/22 21/30/21 5/29/5
f 7/26/7 23/25/23 22/28/22 6/27/6
f 8/24/8 24/23/24 23/25/23 7/26/7
f 9/22/9 25/21/25 24/23/24 8/24/8
f 10/20/10 26/19/26 25/21/25 9/22/9
f 11/18/11 27/17/27 26/19/26 10/20/10
f 12/16/12 28/15/28 27/17/27 11/18/11
f 13/14/13 29/13/29 28/15/28 12/16/12
f 14/12/14 30/11/30 29/13/29 13/14/13
f 15/10/15 31/9/31 30/11/30 14/12/14
f 16/8/16 32/7/32 31/9/31 15/10/15
